<?xml version="1.0" encoding="utf-8"?>
<!-- Generator: Adobe Illustrator 24.3.0, SVG Export Plug-In . SVG Version: 6.00 Build 0)  -->
<svg version="1.1" id="Layer_1" xmlns="http://www.w3.org/2000/svg" xmlns:xlink="http://www.w3.org/1999/xlink" x="0px" y="0px"
	 viewBox="0 0 32 32" enable-background="new 0 0 32 32" xml:space="preserve">
<g>
	<g>
		<path d="M15.653,1.998c2.958,0,5.356,2.955,5.356,6.6c0,2.557-1.18,4.773-2.906,5.869c-0.412,0.262-0.671,0.701-0.671,1.182v1.023
			c0,0.795,0.659,1.44,1.472,1.44h0.692c4.365,0,7.903,3.461,7.903,7.73v3.67H3.667v-3.636c0-4.27,3.572-7.764,7.938-7.764h0.76
			c0.813,0,1.472-0.645,1.472-1.44v-1.043c0-0.479-0.256-0.917-0.665-1.181c-1.709-1.103-2.874-3.308-2.874-5.85
			C10.298,4.953,12.695,1.998,15.653,1.998 M15.653,0.998c-3.505,0-6.356,3.409-6.356,7.6c0,2.8,1.277,5.363,3.332,6.69
			c0.13,0.084,0.207,0.211,0.207,0.341v1.043c0,0.243-0.212,0.44-0.472,0.44h-0.76c-4.928,0-8.938,3.932-8.938,8.764v3.636
			c0,0.552,0.448,1,1,1H27.5c0.552,0,1-0.448,1-1v-3.67c0-4.814-3.994-8.73-8.903-8.73h-0.692c-0.261,0-0.472-0.198-0.472-0.44
			v-1.023c0-0.129,0.078-0.255,0.207-0.338c2.078-1.32,3.369-3.892,3.369-6.713C22.009,4.407,19.158,0.998,15.653,0.998
			L15.653,0.998z"/>
	</g>
	<g>
		<g>
			<path d="M7.5,30.5C7.224,30.5,7,30.276,7,30v-4c0-0.276,0.224-0.5,0.5-0.5S8,25.724,8,26v4C8,30.276,7.776,30.5,7.5,30.5z"/>
		</g>
		<g>
			<path d="M23.5,30.5c-0.276,0-0.5-0.224-0.5-0.5v-4c0-0.276,0.224-0.5,0.5-0.5S24,25.724,24,26v4C24,30.276,23.776,30.5,23.5,30.5
				z"/>
		</g>
	</g>
	<g>
		<path d="M13.528,7.414c-1.215,0-2.407-0.312-3.448-0.904C9.84,6.374,9.756,6.068,9.893,5.828c0.136-0.241,0.442-0.324,0.682-0.188
			c0.891,0.506,1.912,0.773,2.954,0.773c2.342,0,4.443-1.339,5.354-3.411c0.112-0.253,0.409-0.367,0.659-0.256
			c0.253,0.111,0.367,0.406,0.257,0.659C18.728,5.84,16.267,7.414,13.528,7.414z"/>
	</g>
	<g>
		<path d="M15.5,30.5c-0.276,0-0.5-0.224-0.5-0.5v-8.676c-0.002-0.066,0.01-0.19,0.036-0.255C15.038,21.065,15.019,21,15.021,21H15
			l0,0h0.022c0.03,0,0.085-0.073,0.138-0.119l3.997-3.618c0.146-0.134,0.358-0.154,0.542-0.075c0.181,0.08,0.3,0.273,0.3,0.471V23
			c0,0.167-0.084,0.324-0.224,0.417c-0.139,0.093-0.315,0.109-0.471,0.044L16,22.066V30C16,30.276,15.776,30.5,15.5,30.5z
			 M16.414,21.155L19,22.247v-3.454L16.414,21.155z"/>
	</g>
	<g>
		<path d="M15.5,30.5c-0.276,0-0.5-0.224-0.5-0.5v-7.934l-3.306,1.395c-0.155,0.065-0.331,0.049-0.471-0.044
			C11.084,23.324,11,23.167,11,23v-5.341c0-0.198,0.117-0.377,0.298-0.458c0.182-0.079,0.393-0.046,0.539,0.088l3.992,3.646
			c0.054,0.047,0.098,0.105,0.128,0.175c0,0,0.002-0.003,0.001,0.001v0c0,0,0,0,0,0c0.002,0.004,0.004,0.008,0.006,0.013
			c0.026,0.065,0.038,0.132,0.036,0.198V30C16,30.276,15.776,30.5,15.5,30.5z M12,18.793v3.454l2.586-1.091L12,18.793z"/>
	</g>
	<g>
		<path d="M21,28h-3c-0.276,0-0.5-0.224-0.5-0.5S17.724,27,18,27h3c0.276,0,0.5,0.224,0.5,0.5S21.276,28,21,28z"/>
	</g>
</g>
</svg>
